<?xml version="1.0" encoding="UTF-8"?>
<!DOCTYPE svg PUBLIC "-//W3C//DTD SVG 1.1//EN" "http://www.w3.org/Graphics/SVG/1.1/DTD/svg11.dtd">
<svg xmlns="http://www.w3.org/2000/svg" version="1.1" width="1024px" height="1024px" style="shape-rendering:geometricPrecision; text-rendering:geometricPrecision; image-rendering:optimizeQuality; fill-rule:evenodd; clip-rule:evenodd" xmlns:xlink="http://www.w3.org/1999/xlink">
<g><path style="opacity:1" fill="#faf6ec" d="M -0.5,-0.5 C 335.5,-0.5 671.5,-0.5 1007.5,-0.5C 1007.5,4.83333 1007.5,10.1667 1007.5,15.5C 682.167,15.5 356.833,15.5 31.5,15.5C 31.5,11.8333 31.5,8.16667 31.5,4.5C 25.9066,4.80657 20.4066,4.47324 15,3.5C 6.70785,10.8751 3.54118,20.2084 5.5,31.5C 7.16667,31.5 8.83333,31.5 10.5,31.5C 10.5,47.5 10.5,63.5 10.5,79.5C 11.5,79.5 12.5,79.5 13.5,79.5C 13.5,90.1667 13.5,100.833 13.5,111.5C 12.5,111.5 11.5,111.5 10.5,111.5C 10.5,116.833 10.5,122.167 10.5,127.5C 11.5,127.5 12.5,127.5 13.5,127.5C 13.2842,138.24 13.9509,148.906 15.5,159.5C 12.8333,159.5 10.1667,159.5 7.5,159.5C 7.5,162.167 7.5,164.833 7.5,167.5C 8.5,167.5 9.5,167.5 10.5,167.5C 10.5,170.167 10.5,172.833 10.5,175.5C 11.5,175.5 12.5,175.5 13.5,175.5C 13.5,202.167 13.5,228.833 13.5,255.5C 12.5,255.5 11.5,255.5 10.5,255.5C 10.5,266.167 10.5,276.833 10.5,287.5C 11.5,287.5 12.5,287.5 13.5,287.5C 13.5,292.833 13.5,298.167 13.5,303.5C 12.5,303.5 11.5,303.5 10.5,303.5C 10.5,314.167 10.5,324.833 10.5,335.5C 11.5,335.5 12.5,335.5 13.5,335.5C 13.5,356.833 13.5,378.167 13.5,399.5C 12.5,399.5 11.5,399.5 10.5,399.5C 10.5,410.167 10.5,420.833 10.5,431.5C 11.5,431.5 12.5,431.5 13.5,431.5C 13.5,436.833 13.5,442.167 13.5,447.5C 12.5,447.5 11.5,447.5 10.5,447.5C 10.5,452.833 10.5,458.167 10.5,463.5C 11.5,463.5 12.5,463.5 13.5,463.5C 13.5,468.833 13.5,474.167 13.5,479.5C 12.5,479.5 11.5,479.5 10.5,479.5C 10.5,506.167 10.5,532.833 10.5,559.5C 11.5,559.5 12.5,559.5 13.5,559.5C 13.5,580.833 13.5,602.167 13.5,623.5C 12.5,623.5 11.5,623.5 10.5,623.5C 10.5,628.833 10.5,634.167 10.5,639.5C 11.5,639.5 12.5,639.5 13.5,639.5C 13.5,650.167 13.5,660.833 13.5,671.5C 12.5,671.5 11.5,671.5 10.5,671.5C 10.5,703.5 10.5,735.5 10.5,767.5C 11.5,767.5 12.5,767.5 13.5,767.5C 13.0013,791.541 13.668,815.541 15.5,839.5C 14.1724,847.452 13.5057,855.452 13.5,863.5C 12.5,863.5 11.5,863.5 10.5,863.5C 10.5,874.167 10.5,884.833 10.5,895.5C 11.5,895.5 12.5,895.5 13.5,895.5C 13.1415,938.19 13.8082,980.857 15.5,1023.5C 10.1667,1023.5 4.83333,1023.5 -0.5,1023.5C -0.5,682.167 -0.5,340.833 -0.5,-0.5 Z"/></g>
<g><path style="opacity:1" fill="#f8f6ea" d="M 1007.5,-0.5 C 1012.83,-0.5 1018.17,-0.5 1023.5,-0.5C 1023.5,340.833 1023.5,682.167 1023.5,1023.5C 687.5,1023.5 351.5,1023.5 15.5,1023.5C 13.8082,980.857 13.1415,938.19 13.5,895.5C 12.5,895.5 11.5,895.5 10.5,895.5C 10.5,884.833 10.5,874.167 10.5,863.5C 11.5,863.5 12.5,863.5 13.5,863.5C 13.5057,855.452 14.1724,847.452 15.5,839.5C 13.668,815.541 13.0013,791.541 13.5,767.5C 12.5,767.5 11.5,767.5 10.5,767.5C 10.5,735.5 10.5,703.5 10.5,671.5C 11.5,671.5 12.5,671.5 13.5,671.5C 13.5,660.833 13.5,650.167 13.5,639.5C 12.5,639.5 11.5,639.5 10.5,639.5C 10.5,634.167 10.5,628.833 10.5,623.5C 11.5,623.5 12.5,623.5 13.5,623.5C 13.5,602.167 13.5,580.833 13.5,559.5C 12.5,559.5 11.5,559.5 10.5,559.5C 10.5,532.833 10.5,506.167 10.5,479.5C 11.5,479.5 12.5,479.5 13.5,479.5C 13.5,474.167 13.5,468.833 13.5,463.5C 12.5,463.5 11.5,463.5 10.5,463.5C 10.5,458.167 10.5,452.833 10.5,447.5C 11.5,447.5 12.5,447.5 13.5,447.5C 13.5,442.167 13.5,436.833 13.5,431.5C 12.5,431.5 11.5,431.5 10.5,431.5C 10.5,420.833 10.5,410.167 10.5,399.5C 11.5,399.5 12.5,399.5 13.5,399.5C 13.5,378.167 13.5,356.833 13.5,335.5C 12.5,335.5 11.5,335.5 10.5,335.5C 10.5,324.833 10.5,314.167 10.5,303.5C 11.5,303.5 12.5,303.5 13.5,303.5C 13.5,298.167 13.5,292.833 13.5,287.5C 12.5,287.5 11.5,287.5 10.5,287.5C 10.5,276.833 10.5,266.167 10.5,255.5C 11.5,255.5 12.5,255.5 13.5,255.5C 13.5,228.833 13.5,202.167 13.5,175.5C 12.5,175.5 11.5,175.5 10.5,175.5C 10.5,172.833 10.5,170.167 10.5,167.5C 9.5,167.5 8.5,167.5 7.5,167.5C 7.5,164.833 7.5,162.167 7.5,159.5C 10.1667,159.5 12.8333,159.5 15.5,159.5C 13.9509,148.906 13.2842,138.24 13.5,127.5C 12.5,127.5 11.5,127.5 10.5,127.5C 10.5,122.167 10.5,116.833 10.5,111.5C 11.5,111.5 12.5,111.5 13.5,111.5C 13.5,100.833 13.5,90.1667 13.5,79.5C 12.5,79.5 11.5,79.5 10.5,79.5C 10.5,63.5 10.5,47.5 10.5,31.5C 8.83333,31.5 7.16667,31.5 5.5,31.5C 3.54118,20.2084 6.70785,10.8751 15,3.5C 20.4066,4.47324 25.9066,4.80657 31.5,4.5C 31.5,8.16667 31.5,11.8333 31.5,15.5C 356.833,15.5 682.167,15.5 1007.5,15.5C 1007.5,10.1667 1007.5,4.83333 1007.5,-0.5 Z"/></g>
<g><path style="opacity:1" fill="#d93631" d="M 594.5,420.5 C 594.167,420.5 593.833,420.5 593.5,420.5C 591.229,419.946 588.896,420.446 586.5,422C 570.401,432.601 556.401,445.435 544.5,460.5C 546.839,437.464 549.506,414.464 552.5,391.5C 555.224,358.122 567.724,329.122 590,304.5C 608.349,287.901 629.183,275.235 652.5,266.5C 669.562,276.071 686.229,286.238 702.5,297C 703.833,297.667 703.833,298.333 702.5,299C 684.022,306.408 665.688,314.075 647.5,322C 625.196,333.591 610.03,350.758 602,373.5C 598.336,388.985 595.836,404.652 594.5,420.5 Z"/></g>
<g><path style="opacity:1" fill="#1140e4" d="M 548.5,349.5 C 540.759,367.754 528.425,382.254 511.5,393C 461.95,417.941 412.616,443.108 363.5,468.5C 357.995,470.503 352.828,473.169 348,476.5C 336.757,563.446 325.757,650.446 315,737.5C 314.813,741.039 313.646,744.205 311.5,747C 296.67,755.247 282.003,763.747 267.5,772.5C 277.569,682.883 288.236,593.217 299.5,503.5C 299.167,502.833 298.833,502.167 298.5,501.5C 267.343,517.245 236.343,533.245 205.5,549.5C 190.034,540.598 174.7,531.432 159.5,522C 160.984,520.426 162.651,519.093 164.5,518C 273.594,462.619 382.594,406.953 491.5,351C 505.031,341.442 511.864,328.275 512,311.5C 526.702,302.065 542.202,294.065 558.5,287.5C 556.797,308.471 553.463,329.137 548.5,349.5 Z"/></g>
<g><path style="opacity:1" fill="#f7f5eb" d="M 548.5,349.5 C 547.606,352.546 547.439,355.546 548,358.5C 547.549,356.071 546.715,355.904 545.5,358C 545.47,361.966 545.636,366.133 546,370.5C 546.333,369.833 546.667,369.167 547,368.5C 547.833,370.167 548.667,371.833 549.5,373.5C 550.274,374.711 551.107,374.711 552,373.5C 552.167,374 552.333,374.5 552.5,375C 551.214,380.642 551.214,386.142 552.5,391.5C 549.506,414.464 546.839,437.464 544.5,460.5C 537.192,522.607 530.192,584.607 523.5,646.5C 537.92,640.458 552.254,634.125 566.5,627.5C 568.588,623.822 569.755,619.822 570,615.5C 578.256,550.541 586.09,485.541 593.5,420.5C 593.833,420.5 594.167,420.5 594.5,420.5C 595.46,421.283 596.127,422.45 596.5,424C 596.055,425.447 595.388,426.78 594.5,428C 595.457,431.037 596.123,434.204 596.5,437.5C 595.758,438.287 594.925,438.953 594,439.5C 593.749,447.024 593.249,454.524 592.5,462C 593.403,464.079 594.069,466.246 594.5,468.5C 594.137,472.021 592.804,475.021 590.5,477.5C 591.205,481.001 592.205,484.335 593.5,487.5C 592.5,487.5 591.5,487.5 590.5,487.5C 590.66,485.801 590.494,484.134 590,482.5C 588.204,484.72 588.037,487.054 589.5,489.5C 589.125,491.459 588.459,493.293 587.5,495C 590.064,496.062 591.731,497.896 592.5,500.5C 591.447,505.133 591.281,509.799 592,514.5C 594.749,510.995 596.416,506.995 597,502.5C 598.889,501.903 600.722,501.569 602.5,501.5C 601.675,500.614 600.675,500.281 599.5,500.5C 600.363,492.203 600.53,483.87 600,475.5C 600.333,476.833 600.667,478.167 601,479.5C 601.182,476.774 601.682,474.107 602.5,471.5C 603.192,472.025 603.692,472.692 604,473.5C 606.493,472.666 606.993,470.999 605.5,468.5C 605.725,463.594 607.059,459.094 609.5,455C 609.167,454.667 608.833,454.333 608.5,454C 609.606,452.265 611.272,450.431 613.5,448.5C 606.173,466.689 604.673,485.355 609,504.5C 615.327,522.912 628.16,531.079 647.5,529C 653.553,527.538 659.553,525.871 665.5,524C 675.006,523.334 680.006,527.834 680.5,537.5C 677.751,548.759 671.085,556.926 660.5,562C 648.905,567.198 636.905,571.198 624.5,574C 618.78,574.788 613.114,574.621 607.5,573.5C 605.929,575.882 605.096,578.549 605,581.5C 603.421,591.123 602.754,600.79 603,610.5C 604.587,613.756 607.087,615.923 610.5,617C 626.023,619.211 641.023,617.211 655.5,611C 662.522,607.821 669.522,604.655 676.5,601.5C 674.572,603.474 672.239,604.974 669.5,606C 671.179,606.395 672.845,606.228 674.5,605.5C 676.33,605.776 677.997,606.443 679.5,607.5C 676.807,609.041 674.141,610.374 671.5,611.5C 671.281,612.675 671.614,613.675 672.5,614.5C 674.912,615.577 677.246,616.744 679.5,618C 675.716,619.947 671.716,621.28 667.5,622C 666.478,624.316 664.978,624.816 663,623.5C 661.874,624.944 660.374,625.61 658.5,625.5C 654.058,623.706 649.558,623.039 645,623.5C 643.374,624.289 641.874,625.289 640.5,626.5C 639.246,624.741 639.579,623.241 641.5,622C 639.331,621.571 637.331,622.071 635.5,623.5C 631.626,621.532 628.96,622.532 627.5,626.5C 626.311,627.429 624.978,627.762 623.5,627.5C 623.5,629.5 623.5,631.5 623.5,633.5C 624.5,633.5 625.5,633.5 626.5,633.5C 625.491,641.359 621.157,644.859 613.5,644C 609.066,645.63 605.232,648.13 602,651.5C 601.481,650.484 600.647,649.818 599.5,649.5C 597.895,650.43 596.395,650.43 595,649.5C 593.383,650.536 593.216,651.703 594.5,653C 592.064,654.762 589.398,656.096 586.5,657C 584.937,657.759 583.937,658.926 583.5,660.5C 553.407,672.711 523.407,685.211 493.5,698C 477.682,705.764 461.015,708.764 443.5,707C 417.323,702.33 403.323,686.83 401.5,660.5C 406.843,611.077 412.843,561.744 419.5,512.5C 425.518,506.327 432.518,501.493 440.5,498C 442.81,497.503 445.143,497.337 447.5,497.5C 441.326,551.556 434.66,605.556 427.5,659.5C 427.676,665.824 430.676,669.991 436.5,672C 461.268,673.367 480.101,663.534 493,642.5C 493.667,640.5 493.667,638.5 493,636.5C 492.586,636.043 492.086,635.709 491.5,635.5C 488.646,638.188 485.646,640.688 482.5,643C 479.653,643.944 477.153,643.444 475,641.5C 478.08,611.19 481.246,580.857 484.5,550.5C 485.505,542.838 483.171,536.505 477.5,531.5C 498.346,517.803 505.846,498.803 500,474.5C 492.001,457.409 478.501,448.743 459.5,448.5C 448.646,448.84 438.312,451.34 428.5,456C 422.807,458.847 417.14,461.68 411.5,464.5C 411.048,460.837 410.548,457.17 410,453.5C 409,452.833 408,452.167 407,451.5C 406.383,452.449 406.549,453.282 407.5,454C 404.783,454.043 404.116,455.043 405.5,457C 403.799,460.809 400.799,462.476 396.5,462C 395.782,463.987 394.782,465.821 393.5,467.5C 392.707,467.069 391.873,466.735 391,466.5C 389.105,467.689 387.105,468.689 385,469.5C 384.667,469.167 384.333,468.833 384,468.5C 383.517,469.448 383.351,470.448 383.5,471.5C 378.167,473.5 376.5,471.833 378.5,466.5C 375.661,467.321 373.328,468.987 371.5,471.5C 371.977,472.478 372.643,473.311 373.5,474C 371.783,475.559 369.783,476.392 367.5,476.5C 367.551,474.43 366.885,472.597 365.5,471C 366.943,468.922 366.276,468.089 363.5,468.5C 412.616,443.108 461.95,417.941 511.5,393C 528.425,382.254 540.759,367.754 548.5,349.5 Z"/></g>
<g><path style="opacity:1" fill="#2356fe" d="M 676.5,601.5 C 669.522,604.655 662.522,607.821 655.5,611C 641.023,617.211 626.023,619.211 610.5,617C 607.087,615.923 604.587,613.756 603,610.5C 602.754,600.79 603.421,591.123 605,581.5C 605.096,578.549 605.929,575.882 607.5,573.5C 613.114,574.621 618.78,574.788 624.5,574C 636.905,571.198 648.905,567.198 660.5,562C 671.085,556.926 677.751,548.759 680.5,537.5C 680.006,527.834 675.006,523.334 665.5,524C 659.553,525.871 653.553,527.538 647.5,529C 628.16,531.079 615.327,522.912 609,504.5C 604.673,485.355 606.173,466.689 613.5,448.5C 628.896,418.446 653.23,399.946 686.5,393C 697.713,390.542 708.88,389.042 720,388.5C 718.872,402.899 717.039,417.233 714.5,431.5C 700.527,435.661 686.527,439.828 672.5,444C 663.117,447.725 655.95,453.892 651,462.5C 648.335,469.855 649.168,476.688 653.5,483C 655.366,483.985 657.366,484.485 659.5,484.5C 685.584,473.917 705.751,480.584 720,504.5C 729.636,536.93 721.803,564.43 696.5,587C 689.943,592.1 683.276,596.933 676.5,601.5 Z"/></g>
<g><path style="opacity:1" fill="#2356fe" d="M 593.5,420.5 C 586.09,485.541 578.256,550.541 570,615.5C 569.755,619.822 568.588,623.822 566.5,627.5C 552.254,634.125 537.92,640.458 523.5,646.5C 530.192,584.607 537.192,522.607 544.5,460.5C 556.401,445.435 570.401,432.601 586.5,422C 588.896,420.446 591.229,419.946 593.5,420.5 Z"/></g>
<g><path style="opacity:1" fill="#1240e4" d="M 419.5,512.5 C 408.108,502.626 396.108,493.46 383.5,485C 381.808,483.693 380.475,482.193 379.5,480.5C 390.14,475.18 400.807,469.847 411.5,464.5C 417.14,461.68 422.807,458.847 428.5,456C 438.312,451.34 448.646,448.84 459.5,448.5C 478.501,448.743 492.001,457.409 500,474.5C 505.846,498.803 498.346,517.803 477.5,531.5C 483.171,536.505 485.505,542.838 484.5,550.5C 481.246,580.857 478.08,611.19 475,641.5C 477.153,643.444 479.653,643.944 482.5,643C 485.646,640.688 488.646,638.188 491.5,635.5C 492.086,635.709 492.586,636.043 493,636.5C 493.667,638.5 493.667,640.5 493,642.5C 480.101,663.534 461.268,673.367 436.5,672C 430.676,669.991 427.676,665.824 427.5,659.5C 434.66,605.556 441.326,551.556 447.5,497.5C 445.143,497.337 442.81,497.503 440.5,498C 432.518,501.493 425.518,506.327 419.5,512.5 Z"/></g>
<g><path style="opacity:1" fill="#fe3e39" d="M 379.5,480.5 C 380.475,482.193 381.808,483.693 383.5,485C 396.108,493.46 408.108,502.626 419.5,512.5C 412.843,561.744 406.843,611.077 401.5,660.5C 403.323,686.83 417.323,702.33 443.5,707C 461.015,708.764 477.682,705.764 493.5,698C 523.407,685.211 553.407,672.711 583.5,660.5C 648.063,633.803 712.23,606.136 776,577.5C 792.582,586.874 809.082,596.374 825.5,606C 827.394,607.101 828.061,608.434 827.5,610C 717.813,658.013 607.48,704.679 496.5,750C 448.943,765.984 407.776,756.15 373,720.5C 359.247,702.166 352.914,681.5 354,658.5C 361.579,600.201 368.912,541.868 376,483.5C 376.72,481.944 377.887,480.944 379.5,480.5 Z"/></g>
</svg>
